<svg xmlns="http://www.w3.org/2000/svg" viewBox="0 0 748.28 685.25">
  <defs>
    <style>
      .a5a22bbb-49a5-4d38-b1d9-25fba153531e {
        fill: #fff;
      }

      .b2c019f1-6258-462a-93dd-2accf3494ee2 {
        fill: #0699db;
      }

      .ff7205ba-14d2-4889-8f6a-7bc7dfa3cf40 {
        fill: #0799db;
      }

      .e608fc92-4bee-4652-90e2-1320fe659598 {
        fill: #0899db;
      }

      .a8464043-fbb5-4c4b-afba-86348ef5988c {
        fill: #0798db;
      }

      .a0da3791-d835-413c-9d5c-252eacb52a4c {
        fill: #0898db;
      }

      .efa3be00-c889-45df-af8f-b90dee94b5e4 {
        fill: #1891d6;
      }

      .b3098412-82cf-488c-9803-325b1c9d1878 {
        fill: #0a93d8;
      }

      .ab685ed6-7491-473b-9afe-a9e210df5854 {
        fill: #0b90d7;
      }

      .e079955f-4bad-450b-bdd9-21e344019b98 {
        fill: #0b0d0f;
      }

      .b7a0557a-2984-4318-aa3a-7aab541a2634 {
        fill: #1489d2;
      }

      .ed4594f6-fc1d-4d12-8685-382a6818a8d6 {
        fill: #0d8ed5;
      }

      .a20bae41-3f85-4748-b857-8d8d73777f32 {
        fill: #0f0f10;
      }

      .bbb6aacf-9bc7-44c0-a908-2a71a424b7da {
        fill: #0e8ad3;
      }

      .a012eb28-da31-4763-8f5f-9a031288be82 {
        fill: #0b8bd4;
      }

      .ba3ec6b7-03c7-413d-854b-b935ba021b94 {
        fill: #0e8cd4;
      }

      .bb4f4e41-4650-44e1-beaf-aa2569ac27a0 {
        fill: #0b87d0;
      }

      .ef4480aa-e41b-48cc-90f3-46aa58c4741e {
        fill: #202224;
      }

      .a6015819-1eb4-4307-b267-2433eddbaf0b {
        fill: #0d88d1;
      }

      .a51162aa-afff-4516-b9a5-4569014c6660 {
        fill: #1c1d1f;
      }

      .f95b5f3d-5c25-4ef5-a29b-5cebf8ebdf47 {
        fill: #0e8dd5;
      }

      .b3229eca-97ac-499f-a15d-832cc94f73b8 {
        fill: #0e90d6;
      }

      .e6435edb-4175-4187-9354-6d0c51f6785f {
        fill: #1087d0;
      }

      .a0969902-8c2c-4c62-90ae-9f78dfeb25fd {
        fill: #1a8dd6;
      }

      .a7457f44-64ca-435d-811c-ec7158c7bd80 {
        fill: #0c0d0e;
      }

      .a2c81e31-35d9-4d1d-83ea-e606d407189a {
        fill: #1a1c1e;
      }

      .b0abab91-a220-4c00-93d7-5ceae6a05753 {
        fill: #0c86d0;
      }

      .a100759e-233a-48d4-a8f5-2a5cefc0a33d {
        fill: #0d89d1;
      }

      .e3521c2c-7087-4aca-92f1-40e7713bc5ab {
        fill: #198cd2;
      }

      .e855a2cd-e720-473b-b056-ff521fcf449b {
        fill: #e1e3e3;
      }

      .b65ce270-afec-406b-8a65-2d0f89bd48b6 {
        fill: #1793d7;
      }

      .a7d92433-3029-469c-a533-36c6dfd52d68 {
        fill: #0d8ed6;
      }

      .aed6744b-5a19-4471-a67d-3e75f4116047 {
        fill: #108ed4;
      }

      .b95bad7d-315c-4c66-97c6-ecd5168aa7d0 {
        fill: #0c8dd6;
      }
    </style>
  </defs>
  <g id="a995221c-fcf4-4367-aa37-2e10d3776db6" data-name="Layer 2">
    <g id="aea8b13d-14dc-42b3-8c0c-9d1ed7dc87a8" data-name="Layer 1">
      <path class="a5a22bbb-49a5-4d38-b1d9-25fba153531e" d="M642.28,0h1l.22,2q.94,8,1.94,16.05.81,6.65,1.46,13.31l.63,5.81.22,2.71c.78,6.77,3.33,9.91,8.53,14.17l3.62,3.19,2,1.71c3.11,2.74,6.16,5.54,9.2,8.35l1.71,1.57c2.54,2.35,5,4.72,7.48,7.18l-1.65-.09q-7.23-.39-14.47-.63c-4.49-.16-8.95-.45-13.43-.84-22.28-1.47-41.15,5.93-61.61,13.91A53.88,53.88,0,0,1,583.28,90c5.13-8.19,10.48-16.21,15.93-24.19l2.37-3.46q2.83-4.17,5.7-8.35c-37.35-19.75-91.61-24.82-133-28l-3.81-.31C401,20.23,330.37,25.81,263.28,45l-3.44,1c-45.31,13-89.27,32.3-127.56,60l-1.67,1.2A334.19,334.19,0,0,0,97.28,135l-1.52,1.43a173.51,173.51,0,0,0-18.84,21.15c-2.42,3.17-5,6.17-7.64,9.17C37.22,205,24.43,259.09,28.74,308c7.76,72.58,53.83,133.42,108.92,178.32,51.1,41.1,113,68.59,175.62,86.68l2,.57A648.94,648.94,0,0,0,442.7,596.71c3.47.28,6.94.59,10.42.91,91,7.87,186.1-7.19,274.37-59q6.06-3.57,12.16-7l2-1.13C746,528,746,528,748.28,528c0,2,0,2-1.19,3.27-2.26,1.92-4.53,3.84-6.81,5.73l-1.74,1.45A271.93,271.93,0,0,1,711.28,559l-2.14,1.37C646.35,600.16,572.06,611.22,499,611.25h-2.11c-23,0-45.78-.62-68.64-3.25l-3.87-.44c-8.74-1-17.44-2.25-26.13-3.56l-4.31-.64c-26-3.85-52.18-8.29-77.37-15.84a18.68,18.68,0,0,0-7.32-.52,12.82,12.82,0,0,0-3.39,4.25c-.6.91-1.2,1.82-1.83,2.76l-1.91,3-4,6.12c-.66,1-1.32,2-2,3q-3.63,5.54-7.42,11l-1.3,1.9-2.69,3.88-3.08,4.48C273.92,638.61,266,649.5,257.28,660c42,5.92,84.49,7.42,126.87,7.38h2.74c31.94,0,63.6-1,95.39-4.37l2.69-.29c11.81-1.27,23.57-2.87,35.31-4.71l2.46-.38A815.13,815.13,0,0,0,634,632.68l3.78-1.14q3.57-1.08,7.14-2.19l3.21-1,2.82-.88c2.36-.49,2.36-.49,5.36.51a430.23,430.23,0,0,1-44,21l-2.2.9c-46.54,18.93-97.76,26.82-147.43,31.91l-3.1.32c-26.49,2.7-52.79,3.11-79.4,3.12h-2.74c-25.62,0-51.09-.21-76.6-2.8-3.94-.4-7.89-.74-11.84-1.06A834.57,834.57,0,0,1,92.28,641l-3.56-1.18A391.22,391.22,0,0,1,43.28,621L41,619.88c-10.36-5-20.52-10.45-30.67-15.88v-2c8.91,2.21,17.52,5.18,26.18,8.21q26.72,9.31,53.84,17.22l5.81,1.69c34.38,10,69.49,17.47,104.79,23.44l2.94.5c11.45,1.92,22.9,3.61,34.44,4.94,7.16-9.64,14.1-19.42,20.94-29.3q6.33-9.13,12.87-18.14,10.94-15,21.19-30.56l-2.12-.48A227,227,0,0,1,266.71,572l-2-.72C206.24,550.34,149.21,522.2,102.28,481l-2.22-1.92c-1.94-1.68-3.86-3.38-5.78-5.08l-2.18-1.9c-10.55-9.3-20.89-19.23-29.82-30.1l-1.37-1.63C17.66,388.82-4.27,328.67.69,261.19,4.56,221.06,21.34,182.37,46.28,151l2.13-2.71c12.91-16.14,27.5-31.65,43.87-44.29L96,101a332,332,0,0,1,49.11-31.87q3.09-1.66,6.16-3.38c30.89-17,64.9-29,99-37.77l3.84-1C330.55,7.31,411.45,2.75,605.63,37.92l2.5.83,2.15.73c2.3.69,2.3.69,6,.52a59,59,0,0,0,4.25-6.5q1.29-2.18,2.6-4.34l1.48-2.45c3.28-5.32,6.76-10.51,10.23-15.71L637,7.72l2-3L640.85,2Z"/>
      <path class="b2c019f1-6258-462a-93dd-2accf3494ee2" d="M421.28,150c5.67,1.61,10.55,4.29,15.68,7.12l2.86,1.57c11.39,6.3,22.54,13,33.7,19.67,3.23,1.92,6.48,3.79,9.76,5.64a56.33,56.33,0,0,1-4.52,9.39l-1.52,2.55-1.65,2.75Q468.2,211.1,461,223.62c-5.76,10-11.7,19.94-17.73,29.81-4.48,7.33-8.88,14.69-13,22.22-3.81,6.89-7.89,13.62-12,20.35-3.87-.67-6.68-2.46-10-4.5l-1.93-1.17-4.46-2.73-8.84-5.38-14.21-8.62-21.43-13-9-5.46-3-1.83L343.28,252a36.46,36.46,0,0,1,5.31-9.62c3.75-5,7.29-10.18,10.81-15.38a550.21,550.21,0,0,1,33.34-44.16c2.15-2.57,4.25-5.17,6.35-7.78,3.55-4.35,7.26-8.54,11-12.7,2.62-2.88,5.18-5.82,7.74-8.77C419,152.36,420.11,151.17,421.28,150Z"/>
      <path class="b2c019f1-6258-462a-93dd-2accf3494ee2" d="M335.28,258a52.91,52.91,0,0,1,12.7,5.82l1.93,1.15c2.06,1.23,4.12,2.48,6.18,3.72l4.3,2.57,8.71,5.23q5.72,3.43,11.46,6.86l6.53,3.9,3,1.76q9.72,5.83,19.24,12a34.79,34.79,0,0,1-4.82,12.06l-1.21,2.12c-3.57,6.21-7.26,12.35-11,18.48-4.18,6.93-8.27,13.91-12.34,20.9-6.44,11-13,22-19.77,32.79-4.06,6.49-8,13.07-11.89,19.65-4.63-.55-7.93-2.57-11.75-5.06l-2-1.31q-2.31-1.47-4.6-3l-8.62-5.51q-15.42-9.84-30.77-19.8c-3.37-2.19-6.75-4.32-10.21-6.36a165.18,165.18,0,0,1,9-22.19l.87-1.85c8.76-18.72,18.08-36.95,28.37-54.88q2.85-5,5.66-10.05l1.94-3.49,3.75-6.73,1.7-3.05,1.51-2.72A10.19,10.19,0,0,1,335.28,258Z"/>
      <path class="b2c019f1-6258-462a-93dd-2accf3494ee2" d="M485.28,188a60.63,60.63,0,0,1,9.42,4.48l2.57,1.51,2.76,1.63,2.88,1.71c10.73,6.41,21.22,13.18,31.72,20,3.53,2.27,7.08,4.49,10.65,6.7-.57,6.95-2.45,13.06-4.75,19.62l-1.2,3.43c-8.6,24.05-19.76,47.07-31.05,69.95l-3,6.05c-.88,1.8-1.77,3.59-2.66,5.39l-1.18,2.4A95.2,95.2,0,0,1,494.28,343a22,22,0,0,1-7.8-3.19l-2.19-1.35L482,337Q479.5,335.47,477,334l-2.46-1.53q-4.56-2.82-9.17-5.54c-6.91-4.13-13.79-8.31-20.67-12.48L441,312.13c-6.6-4-13.18-8-19.71-12.13a24.17,24.17,0,0,1,3.78-9.94l1.77-2.91,1.95-3.15,4.12-6.78,1.08-1.78c4-6.62,7.95-13.31,11.86-20l2.16-3.71,4.26-7.27,5.64-9.65q7.44-12.7,14.77-25.49l1.12-2q2.71-4.77,5.42-9.54l2-3.44,1.75-3.08A11.29,11.29,0,0,1,485.28,188Z"/>
      <path class="b2c019f1-6258-462a-93dd-2accf3494ee2" d="M416.28,306a54.83,54.83,0,0,1,10.19,5.1l3.07,1.9,3.3,2.06,7,4.35,1.83,1.14c6.15,3.81,12.34,7.55,18.53,11.3,9.78,5.91,19.52,11.86,29.06,18.15-5.61,16-17.31,30.68-26.75,44.62l-1.48,2.2c-6,8.91-12.23,17.64-18.77,26.18l-2.75,3.63c-4.68,6.1-9.44,12.11-14.34,18-1.7,2.08-3.32,4.18-4.91,6.34a24.11,24.11,0,0,1-9.84-3.71l-2.87-1.75-3.11-1.92-4.94-3L396,438.46c-7.61-4.63-15.28-9.17-23-13.71l-6.22-3.68-3.73-2.22q-4.9-2.91-9.8-5.85a46.78,46.78,0,0,1,6.37-13.12l2.74-4.31,1.44-2.28c7.53-12,14.61-24.22,21.76-36.41l1.09-1.86q5.93-10.12,11.77-20.31l1-1.77q2.37-4.14,4.72-8.29A201.37,201.37,0,0,1,416.28,306Z"/>
      <path class="b2c019f1-6258-462a-93dd-2accf3494ee2" d="M253.28,209l1.8,1c4.24,2.32,8.47,4.64,12.76,6.84,12.68,6.54,24.89,13.85,37.12,21.18q4.71,2.82,9.46,5.57l2.82,1.66q2.6,1.53,5.21,3l2.3,1.36,2,1.17c1.52,1.19,1.52,1.19,2.52,4.19a38.38,38.38,0,0,1-2.77,5.43l-1.87,3.32-1,1.76q-1.58,2.73-3.12,5.48l-4.23,7.47c-4.79,8.44-9.4,17-14,25.54l-1.44,2.67c-5.11,9.5-10,19.07-14.55,28.86l-1,2.22q-2.53,5.46-5,10.95l-1.83,4-1.63,3.6c-1.52,2.69-1.52,2.69-4.52,3.69-2.72-1.57-5.23-3.2-7.8-5l-2.39-1.63L257,349.85c-3.61-2.49-7.24-4.93-10.88-7.38l-8.43-5.69-2.83-1.91L229,331l-8.5-5.75-2.6-1.76c-3.84-2.58-7.66-5.13-11.66-7.45a195,195,0,0,1,7-24.62l.73-2.21A335.17,335.17,0,0,1,241.28,229l1.58-2.79C251.89,210.38,251.89,210.38,253.28,209Z"/>
      <path class="b2c019f1-6258-462a-93dd-2accf3494ee2" d="M351.28,115q3.06,1.26,6.06,2.67l3.62,1.69,3.88,1.83,4,1.87c10.67,5,21.23,10.25,31.75,15.58l3.33,1.69,2.93,1.49a22.39,22.39,0,0,0,5.44,2.18,24.19,24.19,0,0,1-4.95,7.29l-1.75,1.83-1.87,1.94c-5.78,6.1-11.21,12.35-16.43,18.94l-2.69,3.31q-4.71,5.81-9.31,11.69l-1.6,2c-13.78,17.62-26,36.38-38.4,55a29.66,29.66,0,0,1-11.44-4.75l-4-2.47-2.2-1.35c-4.25-2.6-8.54-5.14-12.83-7.68l-2.8-1.66c-8.79-5.18-17.67-10.19-26.56-15.19q-8.62-4.85-17.14-9.9c5.28-9.06,11.63-17,18.35-25,1.51-1.8,3-3.62,4.49-5.44,10.91-13.2,23-26.08,36.64-36.55,2.15-1.69,4.19-3.45,6.24-5.28,4.32-3.8,8.83-7.29,13.46-10.7l2.37-1.81,2.3-1.69,2.05-1.53C347,113.66,348.32,114.07,351.28,115Z"/>
      <path class="b2c019f1-6258-462a-93dd-2accf3494ee2" d="M494.28,355c6.44.32,11.08,3.79,16.37,7.12l3,1.89,9.59,6,6.28,3.91q6.08,3.78,12.12,7.59,5.28,3.33,10.63,6.53l2.28,1.38,4.13,2.45c4.31,2.61,4.31,2.61,5.4,5,.22,3.07-.87,4.39-2.57,6.92l-1.86,2.82-2,3-2.07,3.1-4.24,6.3c-1.89,2.78-3.75,5.57-5.61,8.36A225.25,225.25,0,0,1,528.89,450c-1.51,1.75-3,3.51-4.42,5.32-6.52,8.23-13.79,15.53-21.26,22.9l-3.78,3.75q-4.56,4.55-9.15,9.06a62.57,62.57,0,0,1-11.43-4.77l-3.13-1.67-3.32-1.81L469,480.88c-9.94-5.4-19.72-11.07-29.46-16.82-4.69-2.77-9.43-5.44-14.21-8.06a29.3,29.3,0,0,1,5.87-8.25,229.34,229.34,0,0,0,15.55-19.6q2.32-3.16,4.67-6.3A644.37,644.37,0,0,0,494.28,355Z"/>
      <path class="b2c019f1-6258-462a-93dd-2accf3494ee2" d="M551.28,230a46.19,46.19,0,0,1,11.43,6.5l3.75,2.72,1.92,1.41q2.7,2,5.43,3.87c7.26,5.11,14.32,10.41,21.24,16,2,1.6,4,3,6.11,4.46l2.49,1.69L605.8,268c2.92,4,1.76,9,1.11,13.67-.51,3-1.09,5.86-1.7,8.79l-.67,3.28c-7.15,33.82-18.38,66.06-35.26,96.28-10.42-5.78-20.49-12-30.53-18.43l-12.16-7.69-2.36-1.49q-11.44-7.25-23-14.39a30.07,30.07,0,0,1,3-9.3l1.23-2.44,1.33-2.57,1.37-2.7,2.76-5.43q4.72-9.26,9.31-18.56l1-2A518.07,518.07,0,0,0,551.28,230Z"/>
      <path class="b2c019f1-6258-462a-93dd-2accf3494ee2" d="M276.28,373a22.43,22.43,0,0,1,8.39,3.63l2.61,1.67,2.81,1.82L293,382c8.06,5.18,16.08,10.44,24.09,15.7,6.19,4.05,12.44,8,18.83,11.68a28.74,28.74,0,0,1,6.34,4.61c-.32,4.25-2.12,7.23-4.33,10.8l-1,1.68q-1.67,2.7-3.34,5.4l-2.33,3.79-4.73,7.68c-2.59,4.19-5.14,8.4-7.69,12.61q-7.89,13-16,25.92c-12.23,19.48-23.9,39.3-35.56,59.12a99.54,99.54,0,0,1-16-10.25l-1.73-1.35c-4-3.16-4-3.16-5.27-4.4-.14-2.37-.22-4.72-.24-7.09l0-2.21c-.19-17.65.61-34.37,4.27-51.7l.63-3.19C254.66,431.83,262.39,399.43,276.28,373Z"/>
      <path class="b2c019f1-6258-462a-93dd-2accf3494ee2" d="M204.28,324a99.47,99.47,0,0,1,14,8.62c4.37,3.25,8.84,6.26,13.43,9.19q11.4,7.32,22.64,14.84l3.85,2.56c1.83,1.2,3.64,2.41,5.45,3.63l3.21,2.14c2.42,2,2.42,2,3.39,3.92,0,3-.86,5.08-2,7.81l-1.37,3.48-.74,1.85a421.79,421.79,0,0,0-26.89,102l-.57,3.89c-.72,5.84-.8,11.73-1,17.61l-.13,3.65-.3,8.85c-7.77-4.79-13.75-11.42-20-18L215,497.61c-25-28.89-21.7-91-19.48-126.73C198.22,336.12,198.22,336.12,204.28,324Z"/>
      <path class="b2c019f1-6258-462a-93dd-2accf3494ee2" d="M569.28,401a22.4,22.4,0,0,1,9.34,3.48l2.5,1.57,2.66,1.7,5.66,3.57,2.93,1.85q5.53,3.48,11.13,6.89,14.1,8.65,27.78,17.94c-5,14.31-15.41,27.55-24.69,39.34-1.16,1.46-2.29,2.94-3.42,4.41A219.92,219.92,0,0,1,566.75,519c-2,1.64-3.94,3.34-5.85,5.11-2.62,1.88-2.62,1.88-4.71,1.77a76.93,76.93,0,0,1-12.1-5.3l-2.7-1.35-5.67-2.85-8.53-4.27C517,507,507.05,501.79,497.28,496c0-3,0-3,2.06-5.37,1-.94,1.91-1.86,2.87-2.79l1.55-1.52c1.64-1.61,3.3-3.22,4.95-4.82A230.71,230.71,0,0,0,530.28,458l2.79-3.43C546.42,437.82,559.28,420,569.28,401Z"/>
      <path class="b2c019f1-6258-462a-93dd-2accf3494ee2" d="M348.28,419c5.2,1.47,9.29,3.83,13.81,6.69l4.8,3,2.61,1.63c5.08,3.13,10.21,6.2,15.34,9.27l3.21,1.93q13.06,7.83,26.23,15.51a145.16,145.16,0,0,1-12.07,14.69l-1.76,1.87c-5.59,5.91-11.31,11.68-17.05,17.44l-2.66,2.68c-5,5-10.1,9.74-15.46,14.32L362,510.85c-18.13,15.81-37.37,30-58.76,41.11-1.29.67-2.55,1.37-3.8,2.12-2.44,1.32-4.39,2.11-7.14,1.45a60.92,60.92,0,0,1-6.12-3.15l-2.06-1.13c-1.34-.72-2.67-1.46-4-2.2-2.59-1.44-5.23-2.75-7.88-4a60.37,60.37,0,0,1,4.58-9.56l1.55-2.63,1.68-2.81,1.75-2.94c8.37-14,17-27.88,25.78-41.69q9-14.16,17.8-28.39l3.66-5.87C335.69,440.52,342.21,429.91,348.28,419Z"/>
      <path class="ff7205ba-14d2-4889-8f6a-7bc7dfa3cf40" d="M419.28,462c4.75.55,8.26,2.73,12.25,5.19,7.36,4.43,14.8,8.69,22.31,12.87l3.23,1.8,6.27,3.5q6.26,3.5,12.5,7l2,1.13,4.42,2.49c-9.41,23.65-59.9,45-82.14,54.81C385.34,557,370,562.51,354.28,566l-3.88.89c-13.22,2.91-22,2.34-34.75-2.39L312,563.2q-4.38-1.58-8.75-3.2c3-3.18,6.44-5,10.25-7.06A275.1,275.1,0,0,0,349.28,529l2.47-1.92a525.88,525.88,0,0,0,45.4-40.83l2.7-2.69C406.72,476.68,413.09,469.49,419.28,462Z"/>
      <path class="ff7205ba-14d2-4889-8f6a-7bc7dfa3cf40" d="M613.28,276a28.44,28.44,0,0,1,7.28,4.72l1.84,1.62,1.94,1.72c4.39,3.87,8.79,7.67,13.37,11.32A301.24,301.24,0,0,1,661.28,317c2.51,27.93-4.71,57.1-13.44,83.38l-.68,2A228.6,228.6,0,0,1,635.28,431a41.48,41.48,0,0,1-8.54-4.18l-2-1.3-2.11-1.4-4.58-3-2.39-1.57c-3.9-2.53-7.84-5-11.78-7.5l-2.35-1.48-4.78-3-13.18-8.32-4.83-3.05-3.48-2.2a77.61,77.61,0,0,1,5.62-13.25C597.58,347.89,609.11,312.7,613.28,276Z"/>
      <path class="b2c019f1-6258-462a-93dd-2accf3494ee2" d="M190.28,175c5.76,1.62,10.68,4.42,15.87,7.31l5.86,3.24,3.09,1.7c6.42,3.53,12.87,7,19.32,10.47l2.89,1.57,2.54,1.37c2.51,1.39,5,2.85,7.43,4.34a60,60,0,0,1-4.87,10l-1.73,2.89-1.84,3.09C222.44,248.86,210.51,278,201.28,309c-4.23,0-4.84-.25-8.07-2.57l-2.38-1.7-2.55-1.85L182.89,299l-2.79-2c-4.54-3.25-9.12-6.45-13.7-9.64l-2.5-1.76q-6.26-4.39-12.62-8.62C151.43,241.81,171.64,203.72,190.28,175Z"/>
      <path class="b2c019f1-6258-462a-93dd-2accf3494ee2" d="M293.31,92.51l4.21,1.64,4.82,1.91,2.59,1,5.41,2.15,8.24,3.27,5.28,2.1,2.46,1c4.6,1.83,9.13,3.77,13.63,5.84l0,2c-1.81,1.3-3.69,2.52-5.58,3.71-14.14,9.11-26.81,20-39.13,31.41l-2.89,2.67a166.91,166.91,0,0,0-14.2,15.17c-2.34,2.81-4.75,5.53-7.18,8.25-6.69,7.68-12.69,15.88-18.73,24.07a31.55,31.55,0,0,1-9.33-4l-3.19-1.82L236.29,191l-7-4-1.76-1c-5.86-3.33-11.76-6.59-17.68-9.83q-7.6-4.17-15.06-8.58c12.92-20.33,32.57-39.07,52.29-52.7,1.93-1.34,3.83-2.7,5.74-4.06,7.94-5.6,16.15-10.7,24.6-15.49l2.72-1.59,2.57-1.43L285,91C288.4,90.1,290.1,91.12,293.31,92.51Z"/>
      <path class="ff7205ba-14d2-4889-8f6a-7bc7dfa3cf40" d="M489.28,501c4.68,1.11,8.83,3.33,13.06,5.56l2,1.06,4.27,2.23c11.47,6,23,11.91,34.76,17.28,5.78,2.67,5.78,2.67,6.88,4.87-33.51,22-69.33,37.34-109,44l-2.54.45A231.64,231.64,0,0,1,349.28,574v-1l3.68-.78c37.4-8.21,72-24.28,103.32-46.22l3.26-2.25c8.73-6.08,17-12.69,25.15-19.49C486.16,503.09,487.72,502,489.28,501Z"/>
      <path class="b2c019f1-6258-462a-93dd-2accf3494ee2" d="M149.28,285c7.61,4.61,14.81,9.69,22,14.94q8.83,6.42,17.87,12.55c3.1,2.1,6.14,4.25,9.13,6.51l-.42,2.19q-2.31,12.4-4.58,24.81l-.52,2.82q-.63,3.49-1.23,7l-.68,3.83C189,372.27,189,385.08,189,397.81v2.74a266.94,266.94,0,0,0,7.17,61.61A113.25,113.25,0,0,1,198.28,474c-17.55-16.68-27.9-42.65-36-65l-.82-2.19a242.37,242.37,0,0,1-8.37-28.62l-.72-3a222.2,222.2,0,0,1-5.37-52.3q0-4.65,0-9.32l0-6,0-2.76C147.26,289,147.26,289,149.28,285Z"/>
      <path class="ff7205ba-14d2-4889-8f6a-7bc7dfa3cf40" d="M535.28,99c8.62,4.76,18,10,25,17,4.42,33.83-1.77,67.78-12,100a46.32,46.32,0,0,1-9.39-4.7l-2.56-1.64-2.74-1.78q-13.1-8.43-26.38-16.57l-3.36-2.07c-4.52-2.76-9-5.52-13.57-8.24A68.16,68.16,0,0,1,495,171l1.62-2.84,1.72-3,3.56-6.27,1.76-3.08q9.25-16.25,18.15-32.66Q528.43,111,535.28,99Z"/>
      <path class="b2c019f1-6258-462a-93dd-2accf3494ee2" d="M513.38,86.74q2.05,1,4.08,2.14l2.08,1.06c3.66,1.9,7.23,3.89,10.74,6.06q-3.3,6.21-6.62,12.4l-2.91,5.48c-11.2,21.08-23.11,41.7-35.47,62.12A47.43,47.43,0,0,1,473,170.31c-7.23-4.43-14.54-8.7-21.88-12.93l-3.25-1.89c-7.47-4.31-15-8.44-22.62-12.49,0-3,0-3,1.5-4.58l2.06-1.67a95,95,0,0,0,7.75-7.13,132,132,0,0,1,11.7-10.19c2.5-2,4.92-4.13,7.33-6.27a198.19,198.19,0,0,1,38.47-26.1L496,86C502.16,83,507.39,84,513.38,86.74Z"/>
      <path class="e608fc92-4bee-4652-90e2-1320fe659598" d="M567.28,122c7.82,5.62,14.38,12,21,19l2.18,2.25c13.87,15.81,16.43,44.66,18.82,64.75l.29,2.43a214.08,214.08,0,0,1,.84,23.49c0,2.27,0,4.55,0,6.83v8.4A115,115,0,0,1,609.28,261a46,46,0,0,1-9.13-5.81c-11.92-9.06-24.14-17.72-36.39-26.32-3.2-2.25-6.38-4.5-9.48-6.87a127.47,127.47,0,0,1,3.81-18c4.53-17.66,8.1-35.7,8.5-54l.07-2.45.18-7.64c0-1.74.09-3.49.13-5.23Q567.14,128.36,567.28,122Z"/>
      <path class="ff7205ba-14d2-4889-8f6a-7bc7dfa3cf40" d="M495.28,79c-2.83,3-6,4.62-9.63,6.44-13.22,6.82-25.09,15.92-36.37,25.56l-3.36,2.84c-13,10.63-13,10.63-24.67,22.54-2,1.62-2,1.62-4.12,1.45a58.15,58.15,0,0,1-10.44-4.51l-2.23-1.13-4.69-2.39q-6.09-3.11-12.19-6.16l-2.43-1.22c-9.5-4.76-19.15-9.16-28.87-13.42,3.67-4.33,8.28-6.56,13.25-9.12l2.79-1.45C411.74,78.36,452.24,64.09,495.28,79Z"/>
      <path class="a8464043-fbb5-4c4b-afba-86348ef5988c" d="M606.28,163a71.15,71.15,0,0,1,10.12,12.12l1.43,2.11c24.95,37.2,43.85,83.29,42.45,128.77-4.17-3.52-8.24-7.12-12.25-10.81-4.56-4.16-9.25-8.09-14-12-3.54-2.92-6.93-6-10.32-9.09a18.89,18.89,0,0,0-4-3.24c-1.67-1.17-1.67-1.17-4.37-3.9a31,31,0,0,1,.12-8c.15-1.7.29-3.41.43-5.11l.24-2.84c1.88-27.61-1.79-53.61-8.18-80.38C607.3,168.12,606.78,165.57,606.28,163Z"/>
      <path class="a0da3791-d835-413c-9d5c-252eacb52a4c" d="M444.28,66v1l-1.75.33c-31.84,6.18-64.07,18.11-91,36.55-3,1.48-4.06,1-7.26.12-2.53-.89-5-1.8-7.51-2.77l-2.18-.83L330,98.65c-2.28-.89-4.57-1.76-6.86-2.64-8.35-3.2-16.66-6.5-24.89-10,2.81-5.63,15.79-7.85,21.46-9.83A256.53,256.53,0,0,1,368.28,65l2.37-.31C395.4,61.6,419.61,63,444.28,66Z"/>
      <path class="efa3be00-c889-45df-af8f-b90dee94b5e4" d="M368.28,569v2h-3l-1,4,29,2-1,2a249.77,249.77,0,0,1-31.63-2.44l-2.42-.37c-3.58-.6-5.89-1.15-9-3.19l8.37-2,2.41-.58,2.3-.54,2.13-.51A12.5,12.5,0,0,1,368.28,569Z"/>
      <path class="b3098412-82cf-488c-9803-325b1c9d1878" d="M606.28,163a71.8,71.8,0,0,1,10.81,13.31l1.52,2.25q1.85,2.72,3.67,5.44l-1,2-2.38-2.44c-2.34-2.55-2.34-2.55-4.62-3.56l-1,5h-2q-1.26-4.94-2.5-9.88l-.73-2.83-.68-2.72-.63-2.51A12.44,12.44,0,0,1,606.28,163Z"/>
      <path class="ab685ed6-7491-473b-9afe-a9e210df5854" d="M187.28,459c2,0,2,0,3.62,1.5l1.38,1.5,1-3h2q.79,2.89,1.56,5.81l.88,3.27c.56,2.92.56,2.92-.44,5.92q-2.5-3.47-5-6.94l-1.45-2C187.28,460.11,187.28,460.11,187.28,459Z"/>
      <path class="e079955f-4bad-450b-bdd9-21e344019b98" d="M642.28,633l2,1-14,7-2-4h3v-3l3.25.62C638.28,635,639.2,634.82,642.28,633Z"/>
      <path class="b7a0557a-2984-4318-aa3a-7aab541a2634" d="M505.28,485l1,3-7,6a80.9,80.9,0,0,0,9,6l-2,1a35.83,35.83,0,0,1-4.63-2.44l-2.48-1.43L497.28,496c0-3,0-3,1.75-5l2.25-2.15,2.25-2.17Z"/>
      <path class="ed4594f6-fc1d-4d12-8685-382a6818a8d6" d="M455.28,417l1,3a75.69,75.69,0,0,1-4.94,6.19l-1.46,1.69c-1.19,1.38-2.4,2.75-3.6,4.12l-2-1Z"/>
      <path class="a20bae41-3f85-4748-b857-8d8d73777f32" d="M670.28,68c3.94,1.67,6.81,4.18,10,7v1l-16-1V74l10-1Z"/>
      <path class="bbb6aacf-9bc7-44c0-a908-2a71a424b7da" d="M335.28,258c3.77,1.09,6.47,1.91,9,5l-8-2-6,9-1-2a43.79,43.79,0,0,1,2.93-5.12l1.72-2.76Z"/>
      <path class="a012eb28-da31-4763-8f5f-9a031288be82" d="M365.28,516c0,3,0,3-1.61,4.72l-2.14,1.78-2.11,1.78c-2,1.62-4.06,3.18-6.14,4.72l-2-1Z"/>
      <path class="ba3ec6b7-03c7-413d-854b-b935ba021b94" d="M567.28,122q2,1.43,3.93,2.88l2.22,1.61a7.21,7.21,0,0,1,2.85,3.51l-3,1v-3l-6,1Z"/>
      <path class="bb4f4e41-4650-44e1-beaf-aa2569ac27a0" d="M149.28,285l5,3-2,1-2-1-1,13h-1q0-3.44-.07-6.88l0-3.86C148.28,287,148.28,287,149.28,285Z"/>
      <path class="ef4480aa-e41b-48cc-90f3-46aa58c4741e" d="M361.4,594.88l2.88.12v2h5v2l-13-2C358.28,595,358.28,595,361.4,594.88Z"/>
      <path class="a6015819-1eb4-4307-b267-2433eddbaf0b" d="M659.28,297h1v9l-7-6c3,0,3,0,6,2Z"/>
      <path class="a51162aa-afff-4516-b9a5-4569014c6660" d="M545.28,34a28.09,28.09,0,0,1,5.12.38l2.76.33,2.12.29v3l-12-2Z"/>
      <path class="f95b5f3d-5c25-4ef5-a29b-5cebf8ebdf47" d="M546.28,529l4,2c-4.75,3.88-4.75,3.88-7,5A16.58,16.58,0,0,1,546.28,529Z"/>
      <path class="b3229eca-97ac-499f-a15d-832cc94f73b8" d="M218.28,256c1.39,4.18-.18,6.13-2,10a13.19,13.19,0,0,1,0-9Z"/>
      <path class="e6435edb-4175-4187-9354-6d0c51f6785f" d="M195.28,463c2.12,3.53,2.53,6.94,3,11a14.85,14.85,0,0,1-4-4A29.51,29.51,0,0,1,195.28,463Z"/>
      <path class="a0969902-8c2c-4c62-90ae-9f78dfeb25fd" d="M361.28,105v5h2l-1,2-6-3C360.15,105,360.15,105,361.28,105Z"/>
      <path class="a7457f44-64ca-435d-811c-ec7158c7bd80" d="M640.28,3a12.89,12.89,0,0,1,1,4,13.74,13.74,0,0,1-3,3l-2-1Z"/>
      <path class="a2c81e31-35d9-4d1d-83ea-e606d407189a" d="M450.28,607c7.42-.29,7.42-.29,11,2-5.38,1-5.38,1-8,1C451.28,608.56,451.28,608.56,450.28,607Z"/>
      <path class="b0abab91-a220-4c00-93d7-5ceae6a05753" d="M310.28,555l2,1-5,2,1,3-5-1A17.21,17.21,0,0,1,310.28,555Z"/>
      <path class="a100759e-233a-48d4-a8f5-2a5cefc0a33d" d="M416.28,306c4.87,1.75,4.87,1.75,6,4l-7-1v2l-2-1Z"/>
      <path class="e3521c2c-7087-4aca-92f1-40e7713bc5ab" d="M606.28,163c4.87,4.75,4.87,4.75,6,7h-2l-2,2Z"/>
      <path class="e855a2cd-e720-473b-b056-ff521fcf449b" d="M436,22.81l3,.08,2.3.11v1l-1.8.18A106.82,106.82,0,0,0,427.28,26C429.86,22.64,431.85,22.67,436,22.81Z"/>
      <path class="b65ce270-afec-406b-8a65-2d0f89bd48b6" d="M505.28,485l1,3c-1.29,1.38-2.63,2.71-4,4h-2A19.36,19.36,0,0,1,505.28,485Z"/>
      <path class="a7d92433-3029-469c-a533-36c6dfd52d68" d="M555.28,216l3,3-2,4-2-1Z"/>
      <path class="aed6744b-5a19-4471-a67d-3e75f4116047" d="M429.28,138v6l-4-1v-3C428.28,138,428.28,138,429.28,138Z"/>
      <path class="b95bad7d-315c-4c66-97c6-ecd5168aa7d0" d="M402.28,86v2c-4.43,2.09-4.43,2.09-7.32,1.62L393.28,89C400,86,400,86,402.28,86Z"/>
    </g>
  </g>
</svg>
